{
  "asset": {
    "version": "2.0",
    "generator": "THREE.GLTFExporter r168"
  },
  "scenes": [
    {
      "name": "Scene",
      "nodes": [
        3
      ]
    }
  ],
  "scene": 0,
  "nodes": [
    {
      "name": "Cube_1",
      "mesh": 0
    },
    {
      "name": "Cube_2",
      "mesh": 1
    },
    {
      "matrix": [
        0.36016666889190674,
        0,
        0,
        0,
        0,
        0.36016666889190674,
        0,
        0,
        0,
        0,
        0.36016666889190674,
        0,
        0,
        0,
        0,
        1
      ],
      "name": "Cube",
      "extras": {
        "name": "Cube"
      },
      "children": [
        0,
        1
      ]
    },
    {
      "name": "untitled.glb",
      "children": [
        2
      ]
    }
  ],
  "bufferViews": [
    {
      "buffer": 0,
      "byteOffset": 0,
      "byteLength": 480,
      "target": 34962,
      "byteStride": 12
    },
    {
      "buffer": 0,
      "byteOffset": 480,
      "byteLength": 480,
      "target": 34962,
      "byteStride": 12
    },
    {
      "buffer": 0,
      "byteOffset": 960,
      "byteLength": 320,
      "target": 34962,
      "byteStride": 8
    },
    {
      "buffer": 0,
      "byteOffset": 1280,
      "byteLength": 120,
      "target": 34963
    },
    {
      "buffer": 0,
      "byteOffset": 1400,
      "byteLength": 126156,
      "target": 34962,
      "byteStride": 12
    },
    {
      "buffer": 0,
      "byteOffset": 127556,
      "byteLength": 126156,
      "target": 34962,
      "byteStride": 12
    },
    {
      "buffer": 0,
      "byteOffset": 253712,
      "byteLength": 84104,
      "target": 34962,
      "byteStride": 8
    },
    {
      "buffer": 0,
      "byteOffset": 337816,
      "byteLength": 117104,
      "target": 34963
    }
  ],
  "buffers": [
    {
      "byteLength": 454920,
      "uri": "data:application/octet-stream;base64,"
    }
  ],
  "accessors": [
    {
      "bufferView": 0,
      "componentType": 5126,
      "count": 40,
      "max": [
        1,
        1,
        1
      ],
      "min": [
        -1,
        -1,
        -1
      ],
      "type": "VEC3"
    },
    {
      "bufferView": 1,
      "componentType": 5126,
      "count": 40,
      "max": [
        1,
        1,
        1
      ],
      "min": [
        -1,
        -1,
        -1
      ],
      "type": "VEC3"
    },
    {
      "bufferView": 2,
      "componentType": 5126,
      "count": 40,
      "max": [
        0.875,
        1
      ],
      "min": [
        0.125,
        0.25
      ],
      "type": "VEC2"
    },
    {
      "bufferView": 3,
      "componentType": 5123,
      "count": 60,
      "max": [
        39
      ],
      "min": [
        0
      ],
      "type": "SCALAR"
    },
    {
      "bufferView": 4,
      "componentType": 5126,
      "count": 10513,
      "max": [
        0.7615917325019836,
        0.7247627377510071,
        0.4000123143196106
      ],
      "min": [
        -0.7659081816673279,
        -0.9771929979324341,
        -0.3467433750629425
      ],
      "type": "VEC3"
    },
    {
      "bufferView": 5,
      "componentType": 5126,
      "count": 10513,
      "max": [
        0.9999845027923584,
        0.9999624490737915,
        0.9999285936355591
      ],
      "min": [
        -0.999934732913971,
        -0.9995548129081726,
        -0.9999760389328003
      ],
      "type": "VEC3"
    },
    {
      "bufferView": 6,
      "componentType": 5126,
      "count": 10513,
      "max": [
        0.9892034530639648,
        0.9808643460273743
      ],
      "min": [
        0.01486293226480484,
        0.01813805103302002
      ],
      "type": "VEC2"
    },
    {
      "bufferView": 7,
      "componentType": 5123,
      "count": 58551,
      "max": [
        10512
      ],
      "min": [
        0
      ],
      "type": "SCALAR"
    }
  ],
  "materials": [
    {
      "pbrMetallicRoughness": {
        "baseColorFactor": [
          0.800000011920929,
          0.800000011920929,
          0.800000011920929,
          1
        ],
        "metallicFactor": 0,
        "roughnessFactor": 0.5
      },
      "doubleSided": true,
      "name": "Material"
    },
    {
      "pbrMetallicRoughness": {
        "baseColorFactor": [
          0.5,
          0.5,
          0.5,
          1
        ],
        "metallicFactor": 0,
        "roughnessFactor": 0.5527864098548889
      },
      "normalTexture": {
        "index": 0,
        "texCoord": 0,
        "scale": 2.809999942779541,
        "extensions": {
          "KHR_texture_transform": {
            "offset": [
              0,
              -7
            ],
            "scale": [
              8,
              8
            ]
          }
        }
      },
      "occlusionTexture": {
        "index": 1,
        "texCoord": 0
      },
      "doubleSided": true,
      "name": "lambert1"
    }
  ],
  "meshes": [
    {
      "primitives": [
        {
          "mode": 4,
          "attributes": {
            "POSITION": 0,
            "NORMAL": 1,
            "TEXCOORD_0": 2
          },
          "indices": 3,
          "material": 0
        }
      ]
    },
    {
      "primitives": [
        {
          "mode": 4,
          "attributes": {
            "POSITION": 4,
            "NORMAL": 5,
            "TEXCOORD_0": 6
          },
          "indices": 7,
          "material": 1
        }
      ]
    }
  ],
  "textures": [
    {
      "sampler": 0,
      "source": 0,
      "name": "Image_0"
    },
    {
      "sampler": 1,
      "source": 1,
      "name": "Image_1"
    }
  ],
  "samplers": [
    {
      "magFilter": 9729,
      "minFilter": 9987,
      "wrapS": 10497,
      "wrapT": 10497
    },
    {
      "magFilter": 9729,
      "minFilter": 9987,
      "wrapS": 10497,
      "wrapT": 10497
    }
  ],
  "images": [
    {
      "mimeType": "image/jpeg",
      "uri": "data:image/jpeg;base64,"
    },
    {
      "mimeType": "image/jpeg",
      "uri": "data:image/jpeg;base64,"
    }
  ],
  "extensionsUsed": [
    "KHR_texture_transform"
  ]
}